<svg xmlns="http://www.w3.org/2000/svg" width="16" height="16" viewBox="0 0 16 16">
  <g id="그룹_5506" data-name="그룹 5506" transform="translate(-125.5 -254.5)">
    <path id="합치기_2" data-name="합치기 2" d="M8016.985-805.271V-807.5h-2.227a.758.758,0,0,1-.759-.757.76.76,0,0,1,.759-.759h2.227v-2.227a.758.758,0,0,1,.759-.757.756.756,0,0,1,.757.757v2.227h2.227a.758.758,0,0,1,.759.759.756.756,0,0,1-.759.757H8018.5v2.229a.756.756,0,0,1-.757.757A.758.758,0,0,1,8016.985-805.271Z" transform="translate(-7884.519 1070.485)" fill="#d3d3d3" stroke="rgba(0,0,0,0)" stroke-miterlimit="10" stroke-width="1"/>
    <g id="그룹_379" data-name="그룹 379" transform="translate(125.5 254.5)">
      <path id="패스_456" data-name="패스 456" d="M842.851,706.872a7.728,7.728,0,1,1,5.467-2.263,7.676,7.676,0,0,1-5.467,2.263Zm0-14.144a6.416,6.416,0,1,0,0,12.831,6.606,6.606,0,0,0,3.9-1.318,5.387,5.387,0,0,0,.639-.56,6.415,6.415,0,0,0-4.537-10.952Z" transform="translate(-835.128 -691.416)" fill="#d3d3d3"/>
    </g>
  </g>
</svg>
