<svg xmlns="http://www.w3.org/2000/svg" width="18" height="17" viewBox="0 0 18.202 17.436">
  <path id="패스_4402" data-name="패스 4402" d="M524.386,148.054l4.931-.462h0a.342.342,0,0,0,.176-.065.349.349,0,0,0,.116-.147l1.968-4.547a.765.765,0,0,1,.283-.341l.016-.01a.772.772,0,0,1,1.12.352l1.964,4.549a.34.34,0,0,0,.29.212l4.931.466h.008a.76.76,0,0,1,.654.53h0a.768.768,0,0,1-.225.82l-3.718,3.273a.345.345,0,0,0-.1.155.368.368,0,0,0-.008.187l1.081,4.836a.767.767,0,0,1-.3.794.78.78,0,0,1-.42.148.77.77,0,0,1-.429-.109l-4.26-2.524a.355.355,0,0,0-.18-.053h0a.353.353,0,0,0-.181.051l-4.263,2.521a.777.777,0,0,1-1.119-.392.766.766,0,0,1-.029-.443l1.086-4.832v-.006a.343.343,0,0,0-.113-.336l-3.715-3.275a.773.773,0,0,1-.237-.377.771.771,0,0,1,.676-.973Z" transform="translate(-523.183 -141.867)" fill="none" stroke="#d3d8e0" stroke-width="1" fill-rule="evenodd"/>
</svg>
